**ABCDEFGHIJKLMNOPQRSTUVWXYZabcdefghijklmnopqrstuvwxyz**************************
**PARASOLID !"#$%&'()*+,-./:;<=>?@[\]^_`{|}~0123456789**************************
**PART1;
MC=AMD64;
MC_MODEL=AMD64 Family 23 Model 104 Stepping 1, AuthenticAMD;
MC_ID=unknown;
OS=Windows_NT;
OS_RELEASE=unknown;
FRU=Parasolid Version 35.1, build 251, 11- 4-2023;
APPL=SOLIDWORKS 2024-2024203;
SITE=;
USER=unknown;
FORMAT=text;
GUISE=transmit;
KEY=makeProjectedPlanarWire;
FILE=makeProjectedPlanarWire.x_t;
DATE=Tue Feb 11 17:09:02 2025;
**PART2;
SCH=SCH_3501251_35102;
USFLD_SIZE=0;
**PART3;
**END_OF_HEADER*****************************************************************
T51 : TRANSMIT FILE created by modeller version 350125123 SCH_3501251_35102_1300
6231 0 12 36 CCCI7 lattice222 0 CCCI4 mesh1006 0 I8 polyline1008 0 CCCCCCCDI5 ow
ner1040 0 CCCI16 boundary_lattice222 0 CCCI13 boundary_mesh1006 0 I17 boundary_p
olyline1008 0 CCCA16 index_map_offset0 0 1 dA9 index_map82 0 A17 node_id_index_m
ap82 0 A20 schema_embedding_map82 0 A5 child12 0 A14 lowest_node_id0 0 1 dA16 me
sh_offset_data206 0 Z1 621 0 0 0 0 0 0 0 0 0 1e3 1e-8 0 2 0 1 0 3 1 3 0 4 5 6 0
 0 7 8 9 0 0 0 0 0 0 0 13 255 3 170 0 1 0 10 0 0 7 10 50 255 4 3 0 10 0 0 0 +0 0
 .0254 0 0 1 1 0 0 31 255 5 117 0 8 11 0 0 +.037211 .037211 .0254 0 0 1 1 0 0 .0
13589 29 255 6 168 0 9 12 0 .037211 .0508 .0254 19 9 CCCCCCI5 frame230 0 CA5 own
er12 0 Z7 169 0 1 0 0 3 0 V0 16 255 8 115 0 ?13 0 14 5 0 0 1 18 255 9 166 0 15 0
 16 6 ?1 17 255 15 0 0 0 0 9 17 18 0 13 -18 16 163 0 19 9 20 12 ?1 17 19 0 21 13
 22 16 23 14 0 24 +18 20 160 0 22 16 25 26 ?1 29 12 165 0 16 26 6 .0508 .037211
 .0254 29 26 162 0 20 27 12 .0508 -.037211 .0254 29 27 159 0 25 28 26 .037211 -.
0508 .0254 18 25 157 0 29 20 30 27 ?1 29 28 156 0 30 31 27 -.037211 -.0508 .0254
 18 30 154 0 32 25 33 28 ?1 29 31 153 0 33 34 28 -.0508 -.037211 .0254 18 33 151
 0 35 30 36 31 ?1 29 34 150 0 36 37 31 -.0508 .037211 .0254 18 36 148 0 38 33 39
 34 ?1 29 37 147 0 39 40 34 -.037211 .0508 .0254 18 39 145 0 17 36 41 37 ?1 29 4
0 144 0 41 42 37 -.049911 -.037211 .0254 18 41 142 0 43 39 44 40 ?1 29 42 141 0
 44 45 40 -.037211 -.049911 .0254 18 44 139 0 46 41 47 42 ?1 29 45 138 0 47 48 4
2 .037211 -.049911 .0254 18 47 136 0 49 44 50 45 ?1 29 48 135 0 50 51 45 .049911
 -.037211 .0254 18 50 133 0 52 47 53 48 ?1 29 51 132 0 53 54 48 .049911 .037211
 .0254 18 53 130 0 55 50 56 51 ?1 29 54 129 0 56 57 51 .037211 .049911 .0254 18
 56 127 0 58 53 59 54 ?1 29 57 126 0 59 60 54 -.037211 .049911 .0254 18 59 124 0
 61 56 62 57 ?1 29 60 123 0 62 0 57 -.049911 .037211 .0254 18 62 121 0 63 59 0 6
0 ?1 17 63 0 64 61 65 62 43 66 0 67 -15 255 64 7 0 63 10 21 17 61 0 64 58 63 59
 67 68 0 69 -17 65 0 64 63 46 41 70 71 0 0 -17 43 0 0 0 0 41 63 66 0 65 +16 66 9
 0 ?43 68 0 72 0 0 1 17 67 0 0 0 0 62 61 68 0 0 +16 68 17 0 ?67 73 66 74 0 0 1 1
6 73 25 0 ?69 75 68 76 0 0 1 31 74 19 0 68 72 76 0 +-.037211 .037211 .0254 0 0 1
 1 0 0 .0127 30 255 72 11 0 66 0 74 0 +-.049911 0 .0254 0 -1 0 30 76 27 0 73 74
 77 0 +0 .049911 .0254 -1 0 0 31 77 35 0 75 76 78 0 +.037211 .037211 .0254 0 0 1
 1 0 0 .0127 16 75 33 0 ?79 80 73 77 0 0 1 30 78 43 0 80 77 81 0 +.049911 0 .025
4 0 1 0 16 80 41 0 ?82 83 75 78 0 0 1 31 81 51 0 83 78 84 0 +.037211 -.037211 .0
254 0 0 1 1 0 0 .0127 16 83 49 0 ?85 86 80 81 0 0 1 30 84 59 0 86 81 87 0 +0 -.0
49911 .0254 1 0 0 16 86 57 0 ?88 71 83 84 0 0 1 31 87 67 0 71 84 89 0 +-.037211
 -.037211 .0254 0 0 1 1 0 0 .0127 16 71 65 0 ?70 18 86 87 0 0 1 30 89 75 0 18 87
 90 0 +-473644635078992e-32 .0508 .0254 -1 -932371328895653e-31 0 16 18 73 0 ?17
 91 71 89 0 0 1 31 90 81 0 91 89 92 0 +-.037211 .037211 .0254 0 0 1 1 0 0 .01358
9 16 91 79 0 ?38 93 18 90 0 0 1 30 92 87 0 93 90 94 0 +-.0508 0 .0254 0 -1 0 16
 93 85 0 ?35 95 91 92 0 0 1 31 94 93 0 95 92 96 0 +-.037211 -.037211 .0254 0 0 1
 1 0 0 .013589 16 95 91 0 ?32 97 93 94 0 0 1 30 96 99 0 97 94 98 0 +0 -.0508 .02
54 1 0 0 16 97 97 0 ?29 99 95 96 0 0 1 31 98 105 0 99 96 11 0 +.037211 -.037211
 .0254 0 0 1 1 0 0 .013589 16 99 103 0 ?22 14 97 98 0 0 1 30 11 111 0 14 98 5 0
 +.0508 0 .0254 0 1 0 16 14 109 0 ?19 8 99 11 0 0 1 17 22 0 21 19 29 20 100 99 0
 23 +15 21 8 0 17 10 0 17 29 0 21 22 32 25 101 97 0 100 +17 100 0 0 0 0 25 22 99
 0 0 -17 23 0 0 0 0 20 19 14 0 0 -17 32 0 21 29 35 30 102 95 0 101 +17 101 0 0 0
 0 30 29 97 0 0 -17 35 0 21 32 38 33 103 93 0 102 +17 102 0 0 0 0 33 32 95 0 0 -
17 38 0 21 35 17 36 104 91 0 103 +17 103 0 0 0 0 36 35 93 0 0 -17 17 0 21 38 13
 39 15 18 0 104 +17 104 0 0 0 0 39 38 91 0 0 -17 13 0 21 17 19 9 24 8 0 0 +17 24
 0 0 0 0 16 13 8 0 0 -14 255 10 1 0 ?0 0 64 3 4 +0 0 0 0 3 17 70 0 0 0 0 44 65 7
1 0 0 +17 88 0 0 0 0 47 46 86 0 0 +17 46 0 64 65 49 44 88 86 0 70 -17 49 0 64 46
 52 47 85 83 0 88 -17 52 0 64 49 55 50 82 80 0 85 -17 85 0 0 0 0 50 49 83 0 0 +1
7 55 0 64 52 58 53 79 75 0 82 -17 82 0 0 0 0 53 52 80 0 0 +17 58 0 64 55 61 56 6
9 73 0 79 -17 79 0 0 0 0 56 55 75 0 0 +17 69 0 0 0 0 59 58 73 0 0 +1 0 
